<svg xmlns="http://www.w3.org/2000/svg" xmlns:xlink="http://www.w3.org/1999/xlink" version="1.1" x="0px" y="0px" viewBox="0 0 100 125" style="enable-background:new 0 0 100 100;" xml:space="preserve"><g><ellipse transform="matrix(4.896368e-03 -1 1 4.896368e-03 24.1193 95.0578)" cx="59.8" cy="35.4" rx="2.2" ry="2.2"/><path d="M86.3,68.2l4.4,0l-0.5-10.7l-15.9,0.2l-2.4-10.3c1.9-1,3.6-2.4,5-4.1c2.8-3.5,4.1-7.8,3.6-12.3l-0.7-6.1l-16.1,1.9l1.7-3.8   l0.1-0.2c0.8-2.8-0.8-5.8-3.6-6.6c-2.8-0.8-5.7,0.7-6.6,3.5l-2,5.1l-1-4.8c-0.5-2.9-3.2-4.9-6.1-4.4c-2.9,0.5-4.9,3.2-4.4,6.2   l1.9,8.8c0,0,0,0,0,0.1c0,0,0,0.1,0,0.1c0,0.2,0,0.3,0,0.5l3.5,21.2c-9.1,0.6-15.5,5-19.8,10.4c-0.3,0.3-0.5,0.6-0.8,0.9   c-0.1,0.2-0.2,0.3-0.3,0.5c-3.4,4.7-5.5,9.9-6.7,13.9l-2.8-15.6c1.6-0.8,2.8-2.5,2.8-4.4c0-2.7-2.2-5-5-5s-5,2.2-5,5   c0,2.5,1.8,4.5,4.2,4.9l4,22.1c0,0.2,0.1,0.3,0.2,0.4l-0.1,0.8h1.4c0,0,0,0,0,0c0,0,0,0,0,0h27c0,0,0,0,0,0c0,0,0,0,0,0h6.5h2h9.6   L61.7,68l14,0.1c-2.8,1.7-4.6,4.8-4.6,8.3c0,5.4,4.4,9.8,9.8,9.8s9.8-4.4,9.8-9.8C90.7,72.9,88.9,69.9,86.3,68.2z M12.6,58.1   c0-1.1,0.9-2,2-2s2,0.9,2,2s-0.9,2-2,2S12.6,59.1,12.6,58.1z M77.6,31.3c0,0.3,0,0.6,0.1,1c-1-0.1-1.9-0.5-2.7-1.1   c-0.8-0.7-1.4-1.6-1.7-2.6l3.9-0.5L77.6,31.3z M58.2,20.6l0-0.1c0.4-1.2,1.7-1.9,2.9-1.6c1.2,0.4,1.9,1.6,1.6,2.8l-2.4,5.3   l-4.9,0.6L58.2,20.6z M46.7,18.4c1.2-0.2,2.5,0.6,2.7,2l1.7,7.8l-4.6,0.5l-1.7-7.6C44.6,19.8,45.4,18.6,46.7,18.4z M26,70   c1-1.8,2-3.4,3.1-4.8c1.2-1.3,2.8-2.1,4.6-2.1c3.4,0,6.3,2.8,6.3,6.3c0,3.2-2.5,6-5.7,6.2c0,0-0.1,0-0.1,0h0   c-0.8,0-1.5,0.7-1.5,1.5s0.7,1.5,1.5,1.5h9.5l0.9,4.6H21.3C21.9,80.7,23.2,75.3,26,70z M47.5,83.3l-1.4-7.6h-5.5   c1.5-1.7,2.5-3.9,2.5-6.3c0-5-3.9-9-8.9-9.2c3.9-2.9,8.4-4.6,13.5-4.8l4.6,27.9H47.5z M60.9,83.3h-5.6l-4.8-29.5c0,0,0,0,0,0   c0-0.2,0-0.3-0.1-0.4l-3.5-21.6L70.3,29c0.4,1.8,1.4,3.4,2.9,4.6c1.3,1,2.8,1.6,4.3,1.7c-0.4,2.2-1.4,4.3-2.8,6.1   c-2.3,2.8-5.6,4.5-9.3,4.8c-0.4,0-9.4,0.6-10.1-7.4c-0.1-0.8-0.8-1.4-1.6-1.4c-0.8,0.1-1.4,0.8-1.4,1.6c0.7,8.1,7.9,10.1,12.3,10.1   c0.4,0,0.7,0,1,0c1.2-0.1,2.4-0.3,3.5-0.7l2.8,12.2l15.4-0.1l0.2,4.6L58.2,65L60.9,83.3z"/></g><text x="0" y="115" fill="#000000" font-size="5px" font-weight="bold" font-family="'Helvetica Neue', Helvetica, Arial-Unicode, Arial, Sans-serif">Created by Visual Glow</text><text x="0" y="120" fill="#000000" font-size="5px" font-weight="bold" font-family="'Helvetica Neue', Helvetica, Arial-Unicode, Arial, Sans-serif">from the Noun Project</text></svg>