<svg xmlns="http://www.w3.org/2000/svg" xmlns:xlink="http://www.w3.org/1999/xlink" version="1.1" x="0px" y="0px" viewBox="0 0 100 125" style="enable-background:new 0 0 100 100;" xml:space="preserve"><g><path d="M62.8,54.2l2.1-3.7l0.1-0.2c1.1-2.7-0.1-5.8-2.8-7c-1.3-0.6-2.8-0.6-4.1,0c-1.3,0.5-2.3,1.5-2.9,2.8L52.7,51l-0.5-4.9   c-0.1-1.4-0.7-2.7-1.8-3.7c-1.1-0.9-2.4-1.4-3.8-1.3c-1.4,0.1-2.7,0.7-3.7,1.8c-0.9,1.1-1.4,2.4-1.3,3.9l0.8,7.6l-0.2,0L11.9,37.2   l0.7-7.1c0.2,0,0.3-0.1,0.5-0.1c1.2-0.5,2.2-1.4,2.8-2.6c1.1-2.5,0-5.4-2.5-6.6c-1.2-0.5-2.6-0.6-3.8-0.1c-1.2,0.5-2.2,1.4-2.8,2.6   c-1.1,2.5,0,5.4,2.5,6.6c0.1,0,0.2,0.1,0.3,0.1L4.7,77.1H16l1.4-13.4l2.1,1.4L18.1,77h10.7l0.6-5.4l7.9,5.2c0,0,0,0,0,0l0,0   c0,0,0,0,0,0c0.1,0.1,0.2,0.1,0.3,0.2c0,0,0.1,0,0.1,0c0.1,0,0.2,0.1,0.4,0.1c0,0,0,0,0,0c0,0,0,0,0,0c0,0,0,0,0,0c0,0,0,0,0,0   L56.4,77c0.8,0,1.5-0.7,1.5-1.5c0,0,0,0,0,0c2.8,1.2,5.4,1.3,5.6,1.3c0.2,0,0.3,0,0.5,0c4.3,0,8.3-1.6,11.4-4.7   c3.2-3.1,5-7.3,4.9-11.8l0-6.2L62.8,54.2z M77.3,60.3c0,0.3,0,0.6,0,1c-2-0.4-3.6-2.1-4-4.1l4,0L77.3,60.3z M57.9,47.5l0.1-0.1   c0.2-0.6,0.7-1,1.3-1.2c0.6-0.2,1.2-0.2,1.8,0c1.1,0.5,1.7,1.8,1.3,3l-3,5.1l-4.9,0L57.9,47.5z M44.6,46.5c0-0.6,0.2-1.2,0.6-1.7   c0.4-0.5,1-0.7,1.6-0.8c0.6,0,1.2,0.2,1.7,0.6c0.5,0.4,0.7,1,0.8,1.7l0.8,8l-4.6,0L44.6,46.5z M9.6,24.6c0.2-0.5,0.6-0.8,1.1-1   c0.2-0.1,0.5-0.1,0.7-0.1c0.3,0,0.5,0.1,0.8,0.2c1,0.4,1.4,1.6,1,2.6c-0.2,0.5-0.6,0.8-1.1,1s-1,0.2-1.5,0   C9.6,26.7,9.1,25.5,9.6,24.6z M16.7,55.6c-0.8-0.1-1.6,0.5-1.6,1.3l-1.8,17.1H8l3.5-33.6l28.7,16.3v9.6h-1.4   c-0.8,0-1.5,0.7-1.5,1.5s0.7,1.5,1.5,1.5h14.3L54,74l-15.5,0.1L17.7,60.3l0.3-3.1C18.1,56.4,17.5,55.7,16.7,55.6z M26.1,74h-4.7   l0.8-7.1l4.4,2.9L26.1,74z M73.3,70c-2.6,2.6-6.1,3.9-9.7,3.8c0,0-4-0.2-6.8-2.5c-0.1-0.1-0.2-0.1-0.2-0.2l-0.9-4.8h-1.3   c0-0.3,0-0.7,0-1c0-0.8-0.6-1.5-1.5-1.5c-0.8,0-1.5,0.6-1.5,1.5c0,0.4,0,0.7,0,1.1h-8v-9l27-0.2c0.4,3.5,3,6.4,6.5,7   C76.1,66.4,74.9,68.3,73.3,70z"/><ellipse transform="matrix(0.1129 -0.9936 0.9936 0.1129 -9.6005 114.1948)" cx="59.2" cy="62.5" rx="2.2" ry="2.2"/><circle cx="88.4" cy="70.3" r="6.6"/></g><text x="0" y="115" fill="#000000" font-size="5px" font-weight="bold" font-family="'Helvetica Neue', Helvetica, Arial-Unicode, Arial, Sans-serif">Created by Visual Glow</text><text x="0" y="120" fill="#000000" font-size="5px" font-weight="bold" font-family="'Helvetica Neue', Helvetica, Arial-Unicode, Arial, Sans-serif">from the Noun Project</text></svg>