<svg xmlns="http://www.w3.org/2000/svg" xmlns:xlink="http://www.w3.org/1999/xlink" version="1.1" x="0px" y="0px" viewBox="0 0 100 125" style="enable-background:new 0 0 100 100;" xml:space="preserve"><g><path d="M69.2,35.5l0.3-6.4L53,28.3l2.2-3.2l0.1-0.2c1.4-2.7,0.4-6-2.3-7.4c-1.3-0.7-2.8-0.8-4.2-0.4c-1.4,0.4-2.5,1.4-3.2,2.6   l-3.2,5.1l-0.1-5.4c0-1.5-0.5-2.9-1.5-3.9c-1-1.1-2.4-1.7-3.8-1.7c-1.4,0-2.9,0.5-3.9,1.5c-1.1,1-1.7,2.4-1.7,3.9l0.3,9.5   c0,0,0,0.1,0,0.1c0,0.1,0,0.2,0,0.3c0,0.1,0,0.1,0,0.2v35.2c-3,3.7-4.7,8.2-4.7,13v1.5h4.7v4.5h11v-4.5H52v4.5h11.5v-4.5h4.6v-1.5   c0-4.7-1.6-9.3-4.6-13V47.5C66.9,44.4,69,40.2,69.2,35.5z M31.6,76.1H30c0.2-2.1,0.7-4.1,1.6-5.9V76.1z M66.4,32l-0.2,3.4   c0,0.4-0.1,0.7-0.1,1.1c-1-0.3-1.9-0.8-2.7-1.6c-0.8-0.9-1.2-1.9-1.4-3.1L66.4,32z M48.2,21.4l0.1-0.1c0.3-0.6,0.8-1,1.5-1.2   s1.3-0.1,1.9,0.2c1.2,0.6,1.7,2.1,1.1,3.3l-3.2,4.7L44,27.9L48.2,21.4z M34.3,19.3c0-0.7,0.3-1.3,0.8-1.7c0.5-0.5,1.1-0.7,1.8-0.7   c0.7,0,1.3,0.3,1.7,0.8c0.5,0.5,0.7,1.1,0.7,1.9l0.2,8.2l-4.9-0.2L34.3,19.3z M52,76.1h-9.4v-9.1H52V76.1z M65,76.1h-1.6v-5.9   C64.3,72,64.8,74,65,76.1z M61.4,45.3c-2.9,2.5-6.6,3.8-10.5,3.4c-0.4,0-9.9-1-9.3-9.4c0.1-0.8-0.6-1.5-1.4-1.6   c-0.8,0-1.5,0.6-1.6,1.4c-0.7,9.1,7.6,12.2,12,12.6c0.5,0,1,0.1,1.5,0.1c2.9,0,5.7-0.8,8.3-2.2v31H55V63.9H39.6v16.7h-5V65.3   c0-0.2,0-0.3,0-0.5V30.5L59,31.6c0.1,2,0.8,3.8,2.2,5.3c1.1,1.3,2.6,2.1,4.2,2.5C64.6,41.6,63.3,43.6,61.4,45.3z"/><ellipse transform="matrix(0.1672 -0.9859 0.9859 0.1672 3.1317 76.8706)" cx="47.1" cy="36.6" rx="2.4" ry="2.4"/></g><text x="0" y="115" fill="#000000" font-size="5px" font-weight="bold" font-family="'Helvetica Neue', Helvetica, Arial-Unicode, Arial, Sans-serif">Created by Visual Glow</text><text x="0" y="120" fill="#000000" font-size="5px" font-weight="bold" font-family="'Helvetica Neue', Helvetica, Arial-Unicode, Arial, Sans-serif">from the Noun Project</text></svg>